<?xml version="1.0" encoding="utf-8"?>
<!-- Generator: Adobe Illustrator 15.0.2, SVG Export Plug-In . SVG Version: 6.00 Build 0)  -->
<!DOCTYPE svg PUBLIC "-//W3C//DTD SVG 1.1//EN" "http://www.w3.org/Graphics/SVG/1.1/DTD/svg11.dtd">
<svg version="1.1" xmlns="http://www.w3.org/2000/svg" xmlns:xlink="http://www.w3.org/1999/xlink" x="0px" y="0px"
	 width="744.094px" height="1052.363px" viewBox="0 0 744.094 1052.363" enable-background="new 0 0 744.094 1052.363"
	 xml:space="preserve">
<g id="text4359">
	<g id="layer1">
		<linearGradient id="path3825_1_" gradientUnits="userSpaceOnUse" x1="57.1431" y1="428.7905" x2="712.8584" y2="428.7905">
			<stop  offset="0" style="stop-color:#FFFFFF"/>
			<stop  offset="0.3681" style="stop-color:#FFFFFF"/>
			<stop  offset="1" style="stop-color:#CBCBCB"/>
		</linearGradient>
		<path id="path3825" fill="url(#path3825_1_)" stroke="#CCC127" stroke-width="4.5" d="M712.858,428.791
			c0.03,181.07-146.729,327.884-327.8,327.916C203.989,756.74,57.176,609.98,57.143,428.909c0-0.039,0-0.079,0-0.118
			C57.11,247.72,203.87,100.907,384.94,100.874c181.069-0.033,327.885,146.728,327.918,327.798
			C712.858,428.712,712.858,428.751,712.858,428.791z"/>
	</g>
	<g id="layer2">
		<linearGradient id="path4346_1_" gradientUnits="userSpaceOnUse" x1="167.853" y1="429.3481" x2="602.1406" y2="429.3481">
			<stop  offset="0" style="stop-color:#EEEE99"/>
			<stop  offset="0.3742" style="stop-color:#CCC127"/>
			<stop  offset="1" style="stop-color:#999900"/>
		</linearGradient>
		<path id="path4346" fill="url(#path4346_1_)" stroke="#FFFFFF" stroke-width="4.5" d="M602.14,429.349
			c0.018,119.924-97.188,217.157-217.111,217.174c-119.925,0.019-217.158-97.186-217.175-217.11c0-0.021,0-0.042,0-0.063
			c-0.018-119.924,97.187-217.157,217.111-217.175c119.927-0.018,217.158,97.187,217.177,217.111
			C602.14,429.307,602.14,429.327,602.14,429.349z"/>
	</g>
	<g id="layer5">
	</g>
	
		<rect id="rect4292" x="451.46" y="489.67" transform="matrix(-0.5 0.866 -0.866 -0.5 1167.6304 417.5212)" fill="#FFFFFF" stroke="#FFFFFF" stroke-miterlimit="10" width="23.647" height="112.33"/>
	<g>
		<path id="path4294" fill="#FFFFFF" stroke="#FFFFFF" stroke-miterlimit="10" d="M408.841,528.069l-4.019-5.442l8.007-1.591
			L408.841,528.069z"/>
		<path id="path4296" fill="#FFFFFF" stroke="#FFFFFF" stroke-miterlimit="10" d="M420.668,507.582l-6.725-0.76l2.628,7.732
			L420.668,507.582z"/>
		
			<rect id="rect4298" x="403.002" y="513.149" transform="matrix(-0.5 0.866 -0.866 -0.5 1065.2887 417.5622)" fill="#FFFFFF" stroke="#FFFFFF" stroke-miterlimit="10" width="18.21" height="6.298"/>
	</g>
	
		<rect id="rect4300" x="359.893" y="434.859" transform="matrix(-0.4999 0.8661 -0.8661 -0.4999 969.1213 417.4875)" fill="#FFFFFF" stroke="#FFFFFF" stroke-miterlimit="10" width="8.276" height="107.342"/>
	<path id="path4302" fill="#FFFFFF" stroke="#FFFFFF" stroke-miterlimit="10" d="M288.655,379.476
		c37.191,21.457,54.847,60.521,39.437,87.253c-15.414,26.73-58.057,31.006-95.248,9.549c-0.019-0.012-0.038-0.022-0.057-0.033
		c-37.19-21.457-54.846-60.521-39.435-87.251c15.413-26.731,58.055-31.006,95.246-9.55
		C288.617,379.454,288.635,379.464,288.655,379.476z"/>
	<linearGradient id="path4432_2_" gradientUnits="userSpaceOnUse" x1="194.7202" y1="427.8604" x2="326.7212" y2="427.8604">
		<stop  offset="0" style="stop-color:#EEEE88"/>
		<stop  offset="1" style="stop-color:#CCCC00"/>
		<stop  offset="1" style="stop-color:#CCC166"/>
	</linearGradient>
	<path id="path4432" fill="url(#path4432_2_)" stroke="#FFFFFF" stroke-width="4.5" d="M285.403,385.108
		c33.794,19.507,50.14,54.463,36.513,78.076c-13.628,23.614-52.069,26.943-85.862,7.438c-0.005-0.002-0.01-0.007-0.016-0.01
		c-33.793-19.507-50.14-54.461-36.512-78.075c13.627-23.613,52.068-26.944,85.862-7.438
		C285.393,385.102,285.398,385.105,285.403,385.108z"/>
	
		<line fill="none" stroke="#FFFFFF" stroke-width="5" stroke-linecap="round" x1="206.174" y1="382.908" x2="326.667" y2="467.277"/>
	<line fill="none" stroke="#FFFFFF" stroke-width="5" stroke-linecap="round" x1="195.72" y1="394.46" x2="313.083" y2="476.638"/>
	
		<line fill="none" stroke="#FFFFFF" stroke-width="5" stroke-linecap="round" x1="193.228" y1="410.353" x2="298.441" y2="484.024"/>
	<line fill="none" stroke="#FFFFFF" stroke-width="5" stroke-linecap="round" x1="193.228" y1="427.86" x2="277.601" y2="486.938"/>
	
		<line fill="none" stroke="#FFFFFF" stroke-width="5" stroke-linecap="round" x1="219.534" y1="373.138" x2="329.712" y2="450.285"/>
	<line fill="none" stroke="#FFFFFF" stroke-width="5" stroke-linecap="round" x1="241.28" y1="369.042" x2="328.65" y2="430.218"/>
	
		<line fill="none" stroke="#FFFFFF" stroke-width="5" stroke-linecap="round" x1="289.124" y1="485.128" x2="326.673" y2="431.502"/>
	
		<line fill="none" stroke="#FFFFFF" stroke-width="5" stroke-linecap="round" x1="270.376" y1="484.784" x2="319.536" y2="414.575"/>
	
		<line fill="none" stroke="#FFFFFF" stroke-width="5" stroke-linecap="round" x1="253.257" y1="481.343" x2="310.078" y2="400.194"/>
	<line fill="none" stroke="#FFFFFF" stroke-width="5" stroke-linecap="round" x1="239.28" y1="473.683" x2="298.367" y2="389.297"/>
	<line fill="none" stroke="#FFFFFF" stroke-width="5" stroke-linecap="round" x1="226.154" y1="467.285" x2="285.241" y2="382.9"/>
	
		<line fill="none" stroke="#FFFFFF" stroke-width="5" stroke-linecap="round" x1="214.382" y1="458.419" x2="271.969" y2="376.176"/>
	
		<line fill="none" stroke="#FFFFFF" stroke-width="5" stroke-linecap="round" x1="203.379" y1="447.188" x2="257.275" y2="370.216"/>
	
		<line fill="none" stroke="#FFFFFF" stroke-width="5" stroke-linecap="round" x1="196.053" y1="431.736" x2="240.389" y2="368.417"/>
	
		<line fill="none" stroke="#FFFFFF" stroke-width="5" stroke-linecap="round" x1="190.282" y1="413.164" x2="218.712" y2="372.562"/>
	
		<rect id="rect4292_1_" x="296.374" y="489.043" transform="matrix(-0.5 -0.866 0.866 -0.5 -9.8794 1084.7109)" fill="#FFFFFF" stroke="#FFFFFF" stroke-miterlimit="10" width="23.647" height="112.329"/>
	<g>
		<path id="path4294_1_" fill="#FFFFFF" stroke="#FFFFFF" stroke-miterlimit="10" d="M350.805,506.941l6.722-0.759l-2.626,7.729
			L350.805,506.941z"/>
		<path id="path4296_1_" fill="#FFFFFF" stroke="#FFFFFF" stroke-miterlimit="10" d="M362.633,527.428l4.021-5.444l-8.011-1.59
			L362.633,527.428z"/>
		
			<rect id="rect4298_1_" x="350.261" y="512.507" transform="matrix(-0.5 -0.866 0.866 -0.5 92.4534 1084.6921)" fill="#FFFFFF" stroke="#FFFFFF" stroke-miterlimit="10" width="18.21" height="6.297"/>
	</g>
	
		<rect id="rect4300_1_" x="403.312" y="434.234" transform="matrix(-0.5 -0.866 0.866 -0.5 188.6707 1084.7322)" fill="#FFFFFF" stroke="#FFFFFF" stroke-miterlimit="10" width="8.277" height="107.341"/>
	<path id="path4302_1_" fill="#FFFFFF" stroke="#FFFFFF" stroke-miterlimit="10" d="M539.583,477.154
		c-37.179,21.48-79.836,17.238-95.282-9.473c-15.441-26.714,2.177-65.782,39.354-87.261c0.02-0.01,0.039-0.022,0.058-0.033
		c37.178-21.479,79.836-17.237,95.279,9.475c15.443,26.713-2.176,65.779-39.353,87.26
		C539.621,477.133,539.603,477.143,539.583,477.154z"/>
	<linearGradient id="path4432_3_" gradientUnits="userSpaceOnUse" x1="445.6475" y1="428.7695" x2="577.6475" y2="428.7695">
		<stop  offset="0" style="stop-color:#FFFF99"/>
		<stop  offset="0" style="stop-color:#CCC127"/>
		<stop  offset="1" style="stop-color:#999900"/>
	</linearGradient>
	<path id="path4432_1_" fill="url(#path4432_3_)" stroke="#FFFFFF" stroke-miterlimit="10" d="M536.331,471.521
		c-33.791,19.513-72.236,16.191-85.872-7.417c-13.637-23.609,2.701-58.564,36.489-78.078c0.005-0.004,0.011-0.005,0.017-0.009
		c33.789-19.512,72.234-16.192,85.871,7.417c13.636,23.608-2.699,58.564-36.489,78.078
		C536.341,471.516,536.336,471.519,536.331,471.521z"/>
	
		<line fill="none" stroke="#FFFFFF" stroke-width="5" stroke-linecap="round" x1="577.851" y1="404.008" x2="444.539" y2="466.173"/>
	
		<line fill="none" stroke="#FFFFFF" stroke-width="5" stroke-linecap="round" x1="573.073" y1="389.178" x2="443.225" y2="449.729"/>
	
		<line fill="none" stroke="#FFFFFF" stroke-width="5" stroke-linecap="round" x1="560.557" y1="379.073" x2="444.148" y2="433.355"/>
	<line fill="none" stroke="#FFFFFF" stroke-width="5" stroke-linecap="round" x1="545.395" y1="370.319" x2="452.044" y2="413.85"/>
	
		<line fill="none" stroke="#FFFFFF" stroke-width="5" stroke-linecap="round" x1="579.632" y1="420.463" x2="457.731" y2="477.306"/>
	<line fill="none" stroke="#FFFFFF" stroke-width="5" stroke-linecap="round" x1="572.307" y1="441.344" x2="475.641" y2="486.42"/>
	
		<line fill="none" stroke="#FFFFFF" stroke-width="5" stroke-linecap="round" x1="447.851" y1="424.734" x2="475.518" y2="484.065"/>
	<line fill="none" stroke="#FFFFFF" stroke-width="5" stroke-linecap="round" x1="457.523" y1="408.67" x2="493.745" y2="486.348"/>
	
		<line fill="none" stroke="#FFFFFF" stroke-width="5" stroke-linecap="round" x1="469.062" y1="395.564" x2="510.929" y2="485.347"/>
	
		<line fill="none" stroke="#FFFFFF" stroke-width="5" stroke-linecap="round" x1="482.685" y1="387.291" x2="526.221" y2="480.654"/>
	
		<line fill="none" stroke="#FFFFFF" stroke-width="5" stroke-linecap="round" x1="494.788" y1="379.122" x2="538.324" y2="472.485"/>
	<line fill="none" stroke="#FFFFFF" stroke-width="5" stroke-linecap="round" x1="508.353" y1="373.36" x2="550.783" y2="464.354"/>
	<line fill="none" stroke="#FFFFFF" stroke-width="5" stroke-linecap="round" x1="523.58" y1="369.446" x2="563.291" y2="454.608"/>
	
		<line fill="none" stroke="#FFFFFF" stroke-width="5" stroke-linecap="round" x1="540.625" y1="370.828" x2="573.292" y2="440.884"/>
	
		<line fill="none" stroke="#FFFFFF" stroke-width="5" stroke-linecap="round" x1="559.594" y1="375.117" x2="580.541" y2="420.038"/>
	<linearGradient id="SVGID_1_" gradientUnits="userSpaceOnUse" x1="362.0474" y1="428.521" x2="412.7119" y2="428.521">
		<stop  offset="0" style="stop-color:#FFFFFF"/>
		<stop  offset="0.3681" style="stop-color:#FFFFFF"/>
		<stop  offset="1" style="stop-color:#9B9B9B"/>
	</linearGradient>
	<ellipse fill="url(#SVGID_1_)" cx="387.38" cy="428.521" rx="25.332" ry="7.058"/>
	
		<ellipse transform="matrix(0.866 -0.5 0.5 0.866 -115.8308 198.8212)" fill="#D8C72E" stroke="#FFFFFF" stroke-width="4.5" cx="313.083" cy="315.55" rx="18.934" ry="36.201"/>
	
		<ellipse transform="matrix(0.866 0.5 -0.5 0.866 219.0586 -186.4802)" fill="#AAA100" stroke="#CDCDCD" stroke-width="4.5" cx="457.524" cy="315.55" rx="18.934" ry="36.201"/>
</g>
<g id="Layer_2">
	<circle fill="none" cx="384.501" cy="429.36" r="236.38"/>
	<text transform="matrix(0.4313 -0.9022 0.9022 0.4313 158.6333 353.6445)"><tspan x="0" y="0" fill="#CCC127" font-family="'Garamond'" font-size="94.1836">T</tspan><tspan x="58.146" y="-0.89" fill="#CCC127" font-family="'Garamond'" font-size="94.1836" rotate="15.609">H</tspan><tspan x="126.939" y="19.04" fill="#CCC127" font-family="'Garamond'" font-size="94.1836" rotate="31.621">E</tspan><tspan x="178.482" y="52.776" fill="#CCC127" font-family="'Garamond'" font-size="94.1836" rotate="41.949"> </tspan><tspan x="197.06" y="67.399" fill="#CCC127" font-family="'Garamond'" font-size="94.1836" rotate="51.964">R</tspan><tspan x="233.568" y="113.872" fill="#CCC127" font-family="'Garamond'" font-size="94.1836" rotate="66.471">E</tspan><tspan x="259.519" y="170.406" fill="#CCC127" font-family="'Garamond'" font-size="94.1836" rotate="83.431">M</tspan><tspan x="266.767" y="248.493" fill="#CCC127" font-family="'Garamond'" font-size="94.1836" rotate="99.463">L</tspan><tspan x="258.344" y="301.862" fill="#CCC127" font-family="'Garamond'" font-size="94.1836" rotate="113.355">E</tspan><tspan x="233.809" y="358.685" fill="#CCC127" font-family="'Garamond'" font-size="94.1836" rotate="128.251">Y</tspan></text>
</g>
<g id="Layer_3">
	<ellipse fill="none" cx="386.547" cy="451.979" rx="311" ry="292.702"/>
	
		<text transform="matrix(0.4633 0.9562 -0.8999 0.4361 116.2896 549.7207)" fill="#CCC127" font-family="'Garamond'" font-size="83.0165">I</text>
	
		<text transform="matrix(0.6474 0.8425 -0.7929 0.6093 130.979 583.0459)" fill="#CCC127" font-family="'Garamond'" font-size="83.0165">N</text>
	
		<text transform="matrix(0.835 0.6571 -0.6184 0.7858 177.2139 640.9912)" fill="#CCC127" font-family="'Garamond'" font-size="83.0165">V</text>
	
		<text transform="matrix(0.9342 0.5061 -0.4764 0.8793 228.2988 679.1855)" fill="#CCC127" font-family="'Garamond'" font-size="83.0165">I</text>
	
		<text transform="matrix(1.0017 0.3544 -0.3335 0.9427 258.8633 696.415)" fill="#CCC127" font-family="'Garamond'" font-size="83.0165">T</text>
	
		<text transform="matrix(1.0527 0.1439 -0.1354 0.9908 314.8164 715.9336)" fill="#CCC127" font-family="'Garamond'" font-size="83.0165">A</text>
	
		<text transform="matrix(1.0605 -0.0657 0.0619 0.9981 378.8828 723.9111)" fill="#CCC127" font-family="'Garamond'" font-size="83.0165">T</text>
	
		<text transform="matrix(1.0386 -0.2242 0.211 0.9775 436.501 719.2139)" fill="#CCC127" font-family="'Garamond'" font-size="83.0165">I</text>
	
		<text transform="matrix(0.9813 -0.4074 0.3834 0.9236 471.7451 712.9473)" fill="#CCC127" font-family="'Garamond'" font-size="83.0165">O</text>
	
		<text transform="matrix(0.8474 -0.641 0.6033 0.7975 540.9287 683.3408)" fill="#CCC127" font-family="'Garamond'" font-size="83.0165">N</text>
	
		<text transform="matrix(0.6643 -0.8292 0.7804 0.6252 599.2998 637.6807)" fill="#CCC127" font-family="'Garamond'" font-size="83.0165">A</text>
	
		<text transform="matrix(0.4614 -0.9571 0.9008 0.4343 639.252 586.0576)" fill="#CCC127" font-family="'Garamond'" font-size="83.0165">L</text>
</g>
<g id="Layer_4">
	<g>
		<defs>
			<ellipse id="SVGID_2_" cx="386.547" cy="350.291" rx="346.5" ry="84.5"/>
		</defs>
		<clipPath id="SVGID_3_">
			<use xlink:href="#SVGID_2_"  overflow="visible"/>
		</clipPath>
		<linearGradient id="SVGID_4_" gradientUnits="userSpaceOnUse" x1="318.8838" y1="283.2124" x2="454.21" y2="283.2124">
			<stop  offset="0" style="stop-color:#FFFFFF"/>
			<stop  offset="0.3681" style="stop-color:#FFFFFF"/>
			<stop  offset="1" style="stop-color:#9B9B9B"/>
		</linearGradient>
		<path clip-path="url(#SVGID_3_)" fill="url(#SVGID_4_)" d="M454.21,283.212c0,73.03-30.293,132.232-67.663,132.232
			c-25.966,0-48.516-28.584-59.86-70.529c-4.982-18.42-7.803-39.418-7.803-61.703c0-73.03,30.294-132.232,67.663-132.232
			C423.917,150.98,454.21,210.183,454.21,283.212z"/>
	</g>
	<linearGradient id="SVGID_5_" gradientUnits="userSpaceOnUse" x1="376.5469" y1="419.4531" x2="398.2129" y2="419.4531">
		<stop  offset="0" style="stop-color:#FFFFFF"/>
		<stop  offset="0.3681" style="stop-color:#FFFFFF"/>
		<stop  offset="1" style="stop-color:#9B9B9B"/>
	</linearGradient>
	<ellipse fill="url(#SVGID_5_)" cx="387.38" cy="419.453" rx="10.833" ry="5.652"/>
	<text transform="matrix(1 0 0 1 328.6426 355.3076)" fill="#CCC127" font-family="'EdwardianScriptITC'" font-size="94">R</text>
</g>
<g id="Layer_5">
	<path fill="none" stroke="#FFFFFF" stroke-width="2" d="M372.122,593.969c6.883-8.203,19.635-8.811,28.513-1.361"/>
	<g>
		<line fill="none" stroke="#FFFFFF" stroke-width="2" x1="372.122" y1="581.064" x2="369.38" y2="587.64"/>
		<line fill="none" stroke="#FFFFFF" stroke-width="2" x1="369.994" y1="577.777" x2="367.252" y2="584.353"/>
		<line fill="none" stroke="#FFFFFF" stroke-width="2" x1="368.395" y1="573.165" x2="365.653" y2="579.74"/>
		<line fill="none" stroke="#FFFFFF" stroke-width="2" x1="366.276" y1="569.909" x2="363.46" y2="576.453"/>
		<line fill="none" stroke="#FFFFFF" stroke-width="2" x1="363.93" y1="566.117" x2="361.188" y2="572.692"/>
		<line fill="none" stroke="#FFFFFF" stroke-width="2" x1="361.188" y1="562.829" x2="358.447" y2="569.404"/>
		<line fill="none" stroke="#FFFFFF" stroke-width="2" x1="358.752" y1="558.208" x2="356.011" y2="564.783"/>
	</g>
	<g>
		<line fill="none" stroke="#FFFFFF" stroke-width="2" x1="381.307" y1="577.732" x2="376.957" y2="583.373"/>
		<line fill="none" stroke="#FFFFFF" stroke-width="2" x1="380.102" y1="574.006" x2="375.751" y2="579.647"/>
		<line fill="none" stroke="#FFFFFF" stroke-width="2" x1="379.75" y1="569.137" x2="375.401" y2="574.779"/>
		<line fill="none" stroke="#FFFFFF" stroke-width="2" x1="378.546" y1="565.443" x2="374.133" y2="571.036"/>
		<line fill="none" stroke="#FFFFFF" stroke-width="2" x1="377.262" y1="561.174" x2="372.912" y2="566.815"/>
		<line fill="none" stroke="#FFFFFF" stroke-width="2" x1="375.465" y1="557.288" x2="371.115" y2="562.93"/>
		<line fill="none" stroke="#FFFFFF" stroke-width="2" x1="374.308" y1="552.193" x2="369.958" y2="557.836"/>
	</g>
	<g>
		<line fill="none" stroke="#FFFFFF" stroke-width="2" x1="391.506" y1="577.522" x2="385.846" y2="581.845"/>
		<line fill="none" stroke="#FFFFFF" stroke-width="2" x1="391.307" y1="573.611" x2="385.645" y2="577.935"/>
		<line fill="none" stroke="#FFFFFF" stroke-width="2" x1="392.228" y1="568.816" x2="386.566" y2="573.142"/>
		<line fill="none" stroke="#FFFFFF" stroke-width="2" x1="392.021" y1="564.938" x2="386.311" y2="569.197"/>
		<line fill="none" stroke="#FFFFFF" stroke-width="2" x1="391.885" y1="560.48" x2="386.224" y2="564.805"/>
		<line fill="none" stroke="#FFFFFF" stroke-width="2" x1="391.155" y1="556.264" x2="385.493" y2="560.586"/>
		<line fill="none" stroke="#FFFFFF" stroke-width="2" x1="391.355" y1="551.042" x2="385.694" y2="555.367"/>
	</g>
	<line fill="none" stroke="#FFFFFF" stroke-width="2" x1="402.457" y1="580.889" x2="395.394" y2="581.803"/>
	<line fill="none" stroke="#FFFFFF" stroke-width="2" x1="403.24" y1="577.401" x2="396.174" y2="578.315"/>
	<line fill="none" stroke="#FFFFFF" stroke-width="2" x1="404.436" y1="573.711" x2="397.369" y2="574.625"/>
	<line fill="none" stroke="#FFFFFF" stroke-width="2" x1="405.195" y1="570.247" x2="398.121" y2="571.081"/>
	<line fill="none" stroke="#FFFFFF" stroke-width="2" x1="406.306" y1="566.318" x2="399.242" y2="567.234"/>
	<line fill="none" stroke="#FFFFFF" stroke-width="2" x1="407.784" y1="562.303" x2="400.72" y2="563.215"/>
	<line fill="none" stroke="#FFFFFF" stroke-width="2" x1="408.566" y1="557.881" x2="401.503" y2="558.797"/>
	<g>
		<line fill="none" stroke="#FFFFFF" stroke-width="2" x1="410.304" y1="586.67" x2="403.24" y2="587.583"/>
		<line fill="none" stroke="#FFFFFF" stroke-width="2" x1="412.087" y1="583.184" x2="405.021" y2="584.096"/>
		<line fill="none" stroke="#FFFFFF" stroke-width="2" x1="415.281" y1="579.491" x2="408.216" y2="580.406"/>
		<line fill="none" stroke="#FFFFFF" stroke-width="2" x1="417.042" y1="576.028" x2="409.967" y2="576.863"/>
		<line fill="none" stroke="#FFFFFF" stroke-width="2" x1="419.152" y1="572.101" x2="412.088" y2="573.016"/>
		<line fill="none" stroke="#FFFFFF" stroke-width="2" x1="420.63" y1="568.084" x2="413.564" y2="568.996"/>
		<line fill="none" stroke="#FFFFFF" stroke-width="2" x1="423.413" y1="563.662" x2="416.349" y2="564.577"/>
	</g>
	<g>
		<line fill="none" stroke="#FFFFFF" stroke-width="2" x1="355.425" y1="564.328" x2="348.359" y2="563.414"/>
		<line fill="none" stroke="#FFFFFF" stroke-width="2" x1="357.207" y1="567.814" x2="350.143" y2="566.901"/>
		<line fill="none" stroke="#FFFFFF" stroke-width="2" x1="360.402" y1="571.506" x2="353.338" y2="570.592"/>
		<line fill="none" stroke="#FFFFFF" stroke-width="2" x1="362.162" y1="574.969" x2="355.088" y2="574.135"/>
		<line fill="none" stroke="#FFFFFF" stroke-width="2" x1="364.273" y1="578.896" x2="357.209" y2="577.982"/>
		<line fill="none" stroke="#FFFFFF" stroke-width="2" x1="365.75" y1="582.914" x2="358.686" y2="582"/>
		<line fill="none" stroke="#FFFFFF" stroke-width="2" x1="368.534" y1="587.335" x2="361.469" y2="586.422"/>
	</g>
	<line fill="none" stroke="#FFFFFF" stroke-width="2" x1="370.548" y1="557.089" x2="363.959" y2="554.376"/>
	<line fill="none" stroke="#FFFFFF" stroke-width="2" x1="371.366" y1="561.917" x2="364.779" y2="559.206"/>
	<line fill="none" stroke="#FFFFFF" stroke-width="2" x1="372.498" y1="566.31" x2="365.91" y2="563.599"/>
	<line fill="none" stroke="#FFFFFF" stroke-width="2" x1="373.301" y1="570.11" x2="366.684" y2="567.474"/>
	<line fill="none" stroke="#FFFFFF" stroke-width="2" x1="374.324" y1="574.45" x2="367.737" y2="571.739"/>
	<line fill="none" stroke="#FFFFFF" stroke-width="2" x1="375.709" y1="578.714" x2="369.123" y2="576.001"/>
	<line fill="none" stroke="#FFFFFF" stroke-width="2" x1="377.256" y1="582.704" x2="370.667" y2="579.993"/>
	<g>
		<line fill="none" stroke="#FFFFFF" stroke-width="2" x1="385.836" y1="555.239" x2="380.176" y2="550.917"/>
		<line fill="none" stroke="#FFFFFF" stroke-width="2" x1="385.637" y1="559.15" x2="379.975" y2="554.827"/>
		<line fill="none" stroke="#FFFFFF" stroke-width="2" x1="386.558" y1="563.945" x2="380.896" y2="559.62"/>
		<line fill="none" stroke="#FFFFFF" stroke-width="2" x1="386.351" y1="567.824" x2="380.641" y2="563.564"/>
		<line fill="none" stroke="#FFFFFF" stroke-width="2" x1="386.215" y1="572.281" x2="380.554" y2="567.957"/>
		<line fill="none" stroke="#FFFFFF" stroke-width="2" x1="385.485" y1="576.498" x2="379.823" y2="572.176"/>
		<line fill="none" stroke="#FFFFFF" stroke-width="2" x1="385.686" y1="581.72" x2="380.024" y2="577.395"/>
	</g>
	<line fill="none" stroke="#FFFFFF" stroke-width="2" x1="402.316" y1="559.223" x2="397.967" y2="553.583"/>
	<line fill="none" stroke="#FFFFFF" stroke-width="2" x1="401.111" y1="562.949" x2="396.761" y2="557.308"/>
	<line fill="none" stroke="#FFFFFF" stroke-width="2" x1="400.76" y1="567.819" x2="395.728" y2="561.493"/>
	<line fill="none" stroke="#FFFFFF" stroke-width="2" x1="399.556" y1="571.512" x2="394.735" y2="565.504"/>
	<line fill="none" stroke="#FFFFFF" stroke-width="2" x1="398.271" y1="575.782" x2="393.922" y2="570.141"/>
	<line fill="none" stroke="#FFFFFF" stroke-width="2" x1="396.475" y1="578.666" x2="392.124" y2="573.025"/>
	<line fill="none" stroke="#FFFFFF" stroke-width="2" x1="395.316" y1="582.762" x2="390.968" y2="577.119"/>
	<g>
		<line fill="none" stroke="#FFFFFF" stroke-width="2" x1="416.58" y1="564.688" x2="413.838" y2="558.115"/>
		<line fill="none" stroke="#FFFFFF" stroke-width="2" x1="414.452" y1="567.975" x2="411.709" y2="561.4"/>
		<line fill="none" stroke="#FFFFFF" stroke-width="2" x1="412.852" y1="572.588" x2="410.111" y2="566.012"/>
		<line fill="none" stroke="#FFFFFF" stroke-width="2" x1="410.732" y1="575.845" x2="407.918" y2="569.3"/>
		<line fill="none" stroke="#FFFFFF" stroke-width="2" x1="408.387" y1="579.635" x2="405.646" y2="573.061"/>
		<line fill="none" stroke="#FFFFFF" stroke-width="2" x1="405.646" y1="582.924" x2="402.904" y2="576.35"/>
		<line fill="none" stroke="#FFFFFF" stroke-width="2" x1="403.209" y1="587.545" x2="400.469" y2="580.97"/>
	</g>
	
		<line fill="#FFFFFF" stroke="#FFFFFF" stroke-width="3" stroke-linecap="round" x1="380.34" y1="606.698" x2="354.166" y2="561.182"/>
	
		<line fill="#FFFFFF" stroke="#FFFFFF" stroke-width="3" stroke-linecap="round" x1="392.74" y1="606.698" x2="418.915" y2="561.182"/>
	
		<line fill="#FFFFFF" stroke="#FFFFFF" stroke-width="3" stroke-linecap="round" x1="389.047" y1="606.698" x2="403.547" y2="555.432"/>
	
		<line fill="#FFFFFF" stroke="#FFFFFF" stroke-width="3" stroke-linecap="round" x1="383.881" y1="605.773" x2="369.38" y2="554.507"/>
	
		<line fill="#FFFFFF" stroke="#FFFFFF" stroke-width="3" stroke-linecap="round" x1="386.379" y1="602.682" x2="386.38" y2="551.415"/>
	<linearGradient id="SVGID_6_" gradientUnits="userSpaceOnUse" x1="376.6299" y1="612.4316" x2="396.1299" y2="612.4316">
		<stop  offset="0" style="stop-color:#FFFFFF"/>
		<stop  offset="0.3681" style="stop-color:#FFFFFF"/>
		<stop  offset="1" style="stop-color:#9B9B9B"/>
	</linearGradient>
	<circle fill="url(#SVGID_6_)" stroke="#FFFFFF" stroke-miterlimit="10" cx="386.38" cy="612.432" r="9.75"/>
</g>
</svg>
